<mxfile host="app.diagrams.net" modified="2023-04-07T06:56:01.599Z" agent="Mozilla/5.0 (Windows NT 10.0; Win64; x64) AppleWebKit/537.36 (KHTML, like Gecko) Chrome/112.0.0.0 Safari/537.36 Edg/112.0.1722.34" etag="cvPwk7moKjwUgKEUGYyJ" version="21.1.4" type="device">
  <diagram name="페이지-1" id="y12kr9kel0Z25XAeFRXq">
    <mxGraphModel dx="595" dy="804" grid="1" gridSize="10" guides="1" tooltips="1" connect="1" arrows="1" fold="1" page="1" pageScale="1" pageWidth="583" pageHeight="827" math="0" shadow="0">
      <root>
        <mxCell id="0" />
        <mxCell id="1" parent="0" />
        <mxCell id="nbzr0H1OdgaEcZh_Lxra-2" value="판매자" style="swimlane;fontStyle=0;childLayout=stackLayout;horizontal=1;startSize=30;horizontalStack=0;resizeParent=1;resizeParentMax=0;resizeLast=0;collapsible=1;marginBottom=0;whiteSpace=wrap;html=1;" parent="1" vertex="1">
          <mxGeometry x="200" y="20" width="90" height="140" as="geometry" />
        </mxCell>
        <mxCell id="nbzr0H1OdgaEcZh_Lxra-3" value="이름&lt;span style=&quot;white-space: pre;&quot;&gt; &lt;/span&gt;" style="text;strokeColor=none;fillColor=none;align=left;verticalAlign=middle;spacingLeft=4;spacingRight=4;overflow=hidden;points=[[0,0.5],[1,0.5]];portConstraint=eastwest;rotatable=0;whiteSpace=wrap;html=1;" parent="nbzr0H1OdgaEcZh_Lxra-2" vertex="1">
          <mxGeometry y="30" width="90" height="30" as="geometry" />
        </mxCell>
        <mxCell id="nbzr0H1OdgaEcZh_Lxra-4" value="주소" style="text;strokeColor=none;fillColor=none;align=left;verticalAlign=middle;spacingLeft=4;spacingRight=4;overflow=hidden;points=[[0,0.5],[1,0.5]];portConstraint=eastwest;rotatable=0;whiteSpace=wrap;html=1;" parent="nbzr0H1OdgaEcZh_Lxra-2" vertex="1">
          <mxGeometry y="60" width="90" height="30" as="geometry" />
        </mxCell>
        <mxCell id="nbzr0H1OdgaEcZh_Lxra-5" value="회사명" style="text;strokeColor=none;fillColor=none;align=left;verticalAlign=middle;spacingLeft=4;spacingRight=4;overflow=hidden;points=[[0,0.5],[1,0.5]];portConstraint=eastwest;rotatable=0;whiteSpace=wrap;html=1;" parent="nbzr0H1OdgaEcZh_Lxra-2" vertex="1">
          <mxGeometry y="90" width="90" height="30" as="geometry" />
        </mxCell>
        <mxCell id="nbzr0H1OdgaEcZh_Lxra-6" value="&lt;u&gt;판매자 ID&lt;/u&gt;" style="text;strokeColor=none;fillColor=none;align=left;verticalAlign=middle;spacingLeft=4;spacingRight=4;overflow=hidden;points=[[0,0.5],[1,0.5]];portConstraint=eastwest;rotatable=0;whiteSpace=wrap;html=1;" parent="nbzr0H1OdgaEcZh_Lxra-2" vertex="1">
          <mxGeometry y="120" width="90" height="20" as="geometry" />
        </mxCell>
        <mxCell id="nbzr0H1OdgaEcZh_Lxra-11" style="edgeStyle=orthogonalEdgeStyle;rounded=0;orthogonalLoop=1;jettySize=auto;html=1;exitX=0.5;exitY=1;exitDx=0;exitDy=0;shape=arrow;" parent="1" source="nbzr0H1OdgaEcZh_Lxra-9" edge="1">
          <mxGeometry relative="1" as="geometry">
            <mxPoint x="235" y="370" as="targetPoint" />
          </mxGeometry>
        </mxCell>
        <mxCell id="nbzr0H1OdgaEcZh_Lxra-9" value="판매한다" style="rhombus;whiteSpace=wrap;html=1;" parent="1" vertex="1">
          <mxGeometry x="180" y="230" width="110" height="70" as="geometry" />
        </mxCell>
        <mxCell id="nbzr0H1OdgaEcZh_Lxra-19" style="edgeStyle=orthogonalEdgeStyle;rounded=0;orthogonalLoop=1;jettySize=auto;html=1;endArrow=none;endFill=0;startArrow=none;startFill=0;" parent="1" source="nbzr0H1OdgaEcZh_Lxra-12" target="nbzr0H1OdgaEcZh_Lxra-20" edge="1">
          <mxGeometry relative="1" as="geometry">
            <mxPoint x="242.5" y="670" as="targetPoint" />
            <Array as="points">
              <mxPoint x="243" y="620" />
              <mxPoint x="250" y="620" />
            </Array>
          </mxGeometry>
        </mxCell>
        <mxCell id="nbzr0H1OdgaEcZh_Lxra-12" value="판매물품&lt;span style=&quot;white-space: pre;&quot;&gt; &lt;/span&gt;" style="swimlane;fontStyle=0;childLayout=stackLayout;horizontal=1;startSize=30;horizontalStack=0;resizeParent=1;resizeParentMax=0;resizeLast=0;collapsible=1;marginBottom=0;whiteSpace=wrap;html=1;" parent="1" vertex="1">
          <mxGeometry x="180" y="370" width="125" height="240" as="geometry" />
        </mxCell>
        <mxCell id="nbzr0H1OdgaEcZh_Lxra-13" value="&lt;u&gt;판매상품&lt;/u&gt;" style="text;strokeColor=none;fillColor=none;align=left;verticalAlign=middle;spacingLeft=4;spacingRight=4;overflow=hidden;points=[[0,0.5],[1,0.5]];portConstraint=eastwest;rotatable=0;whiteSpace=wrap;html=1;" parent="nbzr0H1OdgaEcZh_Lxra-12" vertex="1">
          <mxGeometry y="30" width="125" height="30" as="geometry" />
        </mxCell>
        <mxCell id="nbzr0H1OdgaEcZh_Lxra-14" value="&lt;u&gt;판매상품 코드&lt;/u&gt;" style="text;strokeColor=none;fillColor=none;align=left;verticalAlign=middle;spacingLeft=4;spacingRight=4;overflow=hidden;points=[[0,0.5],[1,0.5]];portConstraint=eastwest;rotatable=0;whiteSpace=wrap;html=1;" parent="nbzr0H1OdgaEcZh_Lxra-12" vertex="1">
          <mxGeometry y="60" width="125" height="30" as="geometry" />
        </mxCell>
        <mxCell id="nbzr0H1OdgaEcZh_Lxra-15" value="판매등록일" style="text;strokeColor=none;fillColor=none;align=left;verticalAlign=middle;spacingLeft=4;spacingRight=4;overflow=hidden;points=[[0,0.5],[1,0.5]];portConstraint=eastwest;rotatable=0;whiteSpace=wrap;html=1;" parent="nbzr0H1OdgaEcZh_Lxra-12" vertex="1">
          <mxGeometry y="90" width="125" height="30" as="geometry" />
        </mxCell>
        <mxCell id="nbzr0H1OdgaEcZh_Lxra-16" value="판매가격" style="text;strokeColor=none;fillColor=none;align=left;verticalAlign=middle;spacingLeft=4;spacingRight=4;overflow=hidden;points=[[0,0.5],[1,0.5]];portConstraint=eastwest;rotatable=0;whiteSpace=wrap;html=1;" parent="nbzr0H1OdgaEcZh_Lxra-12" vertex="1">
          <mxGeometry y="120" width="125" height="30" as="geometry" />
        </mxCell>
        <mxCell id="nbzr0H1OdgaEcZh_Lxra-17" value="배송비" style="text;strokeColor=none;fillColor=none;align=left;verticalAlign=middle;spacingLeft=4;spacingRight=4;overflow=hidden;points=[[0,0.5],[1,0.5]];portConstraint=eastwest;rotatable=0;whiteSpace=wrap;html=1;" parent="nbzr0H1OdgaEcZh_Lxra-12" vertex="1">
          <mxGeometry y="150" width="125" height="30" as="geometry" />
        </mxCell>
        <mxCell id="Jmat47n0zYJWIernrPOY-5" value="무게" style="text;strokeColor=none;fillColor=none;align=left;verticalAlign=middle;spacingLeft=4;spacingRight=4;overflow=hidden;points=[[0,0.5],[1,0.5]];portConstraint=eastwest;rotatable=0;whiteSpace=wrap;html=1;" parent="nbzr0H1OdgaEcZh_Lxra-12" vertex="1">
          <mxGeometry y="180" width="125" height="30" as="geometry" />
        </mxCell>
        <mxCell id="nbzr0H1OdgaEcZh_Lxra-18" value="위험물질등급" style="text;strokeColor=none;fillColor=none;align=left;verticalAlign=middle;spacingLeft=4;spacingRight=4;overflow=hidden;points=[[0,0.5],[1,0.5]];portConstraint=eastwest;rotatable=0;whiteSpace=wrap;html=1;" parent="nbzr0H1OdgaEcZh_Lxra-12" vertex="1">
          <mxGeometry y="210" width="125" height="30" as="geometry" />
        </mxCell>
        <mxCell id="nbzr0H1OdgaEcZh_Lxra-20" value="구매한다" style="rhombus;whiteSpace=wrap;html=1;" parent="1" vertex="1">
          <mxGeometry x="190" y="660" width="110" height="80" as="geometry" />
        </mxCell>
        <mxCell id="nbzr0H1OdgaEcZh_Lxra-23" value="구매자" style="swimlane;fontStyle=0;childLayout=stackLayout;horizontal=1;startSize=30;horizontalStack=0;resizeParent=1;resizeParentMax=0;resizeLast=0;collapsible=1;marginBottom=0;whiteSpace=wrap;html=1;" parent="1" vertex="1">
          <mxGeometry x="180" y="830" width="120" height="210" as="geometry" />
        </mxCell>
        <mxCell id="nbzr0H1OdgaEcZh_Lxra-24" value="&lt;u&gt;구매자ID&lt;/u&gt;" style="text;strokeColor=none;fillColor=none;align=left;verticalAlign=middle;spacingLeft=4;spacingRight=4;overflow=hidden;points=[[0,0.5],[1,0.5]];portConstraint=eastwest;rotatable=0;whiteSpace=wrap;html=1;" parent="nbzr0H1OdgaEcZh_Lxra-23" vertex="1">
          <mxGeometry y="30" width="120" height="30" as="geometry" />
        </mxCell>
        <mxCell id="nbzr0H1OdgaEcZh_Lxra-25" value="주소" style="text;strokeColor=none;fillColor=none;align=left;verticalAlign=middle;spacingLeft=4;spacingRight=4;overflow=hidden;points=[[0,0.5],[1,0.5]];portConstraint=eastwest;rotatable=0;whiteSpace=wrap;html=1;" parent="nbzr0H1OdgaEcZh_Lxra-23" vertex="1">
          <mxGeometry y="60" width="120" height="30" as="geometry" />
        </mxCell>
        <mxCell id="nbzr0H1OdgaEcZh_Lxra-26" value="이름" style="text;strokeColor=none;fillColor=none;align=left;verticalAlign=middle;spacingLeft=4;spacingRight=4;overflow=hidden;points=[[0,0.5],[1,0.5]];portConstraint=eastwest;rotatable=0;whiteSpace=wrap;html=1;" parent="nbzr0H1OdgaEcZh_Lxra-23" vertex="1">
          <mxGeometry y="90" width="120" height="30" as="geometry" />
        </mxCell>
        <mxCell id="nbzr0H1OdgaEcZh_Lxra-27" value="번호" style="text;strokeColor=none;fillColor=none;align=left;verticalAlign=middle;spacingLeft=4;spacingRight=4;overflow=hidden;points=[[0,0.5],[1,0.5]];portConstraint=eastwest;rotatable=0;whiteSpace=wrap;html=1;" parent="nbzr0H1OdgaEcZh_Lxra-23" vertex="1">
          <mxGeometry y="120" width="120" height="30" as="geometry" />
        </mxCell>
        <mxCell id="nbzr0H1OdgaEcZh_Lxra-28" value="이름" style="text;strokeColor=none;fillColor=none;align=left;verticalAlign=middle;spacingLeft=4;spacingRight=4;overflow=hidden;points=[[0,0.5],[1,0.5]];portConstraint=eastwest;rotatable=0;whiteSpace=wrap;html=1;" parent="nbzr0H1OdgaEcZh_Lxra-23" vertex="1">
          <mxGeometry y="150" width="120" height="30" as="geometry" />
        </mxCell>
        <mxCell id="nbzr0H1OdgaEcZh_Lxra-46" value="통관부호" style="text;strokeColor=none;fillColor=none;align=left;verticalAlign=middle;spacingLeft=4;spacingRight=4;overflow=hidden;points=[[0,0.5],[1,0.5]];portConstraint=eastwest;rotatable=0;whiteSpace=wrap;html=1;" parent="nbzr0H1OdgaEcZh_Lxra-23" vertex="1">
          <mxGeometry y="180" width="120" height="30" as="geometry" />
        </mxCell>
        <mxCell id="nbzr0H1OdgaEcZh_Lxra-30" value="" style="endArrow=none;html=1;rounded=0;" parent="1" edge="1">
          <mxGeometry width="50" height="50" relative="1" as="geometry">
            <mxPoint x="130" y="700" as="sourcePoint" />
            <mxPoint x="190" y="700" as="targetPoint" />
          </mxGeometry>
        </mxCell>
        <mxCell id="nbzr0H1OdgaEcZh_Lxra-31" value="구매수량&lt;br&gt;결제방법&lt;br&gt;결제확정일&lt;br&gt;결제가격()" style="whiteSpace=wrap;html=1;aspect=fixed;" parent="1" vertex="1">
          <mxGeometry x="50" y="660" width="80" height="80" as="geometry" />
        </mxCell>
        <mxCell id="nbzr0H1OdgaEcZh_Lxra-32" value="" style="endArrow=none;html=1;rounded=0;exitX=0.5;exitY=0;exitDx=0;exitDy=0;" parent="1" source="nbzr0H1OdgaEcZh_Lxra-23" edge="1">
          <mxGeometry width="50" height="50" relative="1" as="geometry">
            <mxPoint x="180" y="740" as="sourcePoint" />
            <mxPoint x="240" y="740" as="targetPoint" />
          </mxGeometry>
        </mxCell>
        <mxCell id="nbzr0H1OdgaEcZh_Lxra-33" value="" style="endArrow=none;html=1;rounded=0;exitX=0.5;exitY=0;exitDx=0;exitDy=0;entryX=0.378;entryY=1;entryDx=0;entryDy=0;entryPerimeter=0;" parent="1" source="nbzr0H1OdgaEcZh_Lxra-9" target="nbzr0H1OdgaEcZh_Lxra-6" edge="1">
          <mxGeometry width="50" height="50" relative="1" as="geometry">
            <mxPoint x="200" y="210" as="sourcePoint" />
            <mxPoint x="230" y="180" as="targetPoint" />
          </mxGeometry>
        </mxCell>
        <mxCell id="nbzr0H1OdgaEcZh_Lxra-34" value="" style="endArrow=none;html=1;rounded=0;exitX=0;exitY=0.5;exitDx=0;exitDy=0;endFill=0;" parent="1" source="nbzr0H1OdgaEcZh_Lxra-35" edge="1">
          <mxGeometry width="50" height="50" relative="1" as="geometry">
            <mxPoint x="370" y="470" as="sourcePoint" />
            <mxPoint x="300" y="470" as="targetPoint" />
            <Array as="points">
              <mxPoint x="320" y="470" />
              <mxPoint x="330" y="470" />
            </Array>
          </mxGeometry>
        </mxCell>
        <mxCell id="nbzr0H1OdgaEcZh_Lxra-36" style="edgeStyle=orthogonalEdgeStyle;rounded=0;orthogonalLoop=1;jettySize=auto;html=1;endArrow=classic;endFill=1;" parent="1" source="nbzr0H1OdgaEcZh_Lxra-35" edge="1">
          <mxGeometry relative="1" as="geometry">
            <mxPoint x="510" y="475" as="targetPoint" />
          </mxGeometry>
        </mxCell>
        <mxCell id="nbzr0H1OdgaEcZh_Lxra-48" style="edgeStyle=orthogonalEdgeStyle;rounded=0;orthogonalLoop=1;jettySize=auto;html=1;endArrow=none;endFill=0;" parent="1" source="nbzr0H1OdgaEcZh_Lxra-35" edge="1">
          <mxGeometry relative="1" as="geometry">
            <mxPoint x="410" y="560" as="targetPoint" />
          </mxGeometry>
        </mxCell>
        <mxCell id="nbzr0H1OdgaEcZh_Lxra-35" value="포장한다" style="rhombus;whiteSpace=wrap;html=1;" parent="1" vertex="1">
          <mxGeometry x="370" y="435" width="80" height="80" as="geometry" />
        </mxCell>
        <mxCell id="nbzr0H1OdgaEcZh_Lxra-37" value="배송준비" style="swimlane;fontStyle=0;childLayout=stackLayout;horizontal=1;startSize=30;horizontalStack=0;resizeParent=1;resizeParentMax=0;resizeLast=0;collapsible=1;marginBottom=0;whiteSpace=wrap;html=1;" parent="1" vertex="1">
          <mxGeometry x="510" y="425" width="110" height="90" as="geometry" />
        </mxCell>
        <mxCell id="nbzr0H1OdgaEcZh_Lxra-40" value="&lt;u&gt;운송장번호&lt;/u&gt;" style="text;strokeColor=none;fillColor=none;align=left;verticalAlign=middle;spacingLeft=4;spacingRight=4;overflow=hidden;points=[[0,0.5],[1,0.5]];portConstraint=eastwest;rotatable=0;whiteSpace=wrap;html=1;" parent="nbzr0H1OdgaEcZh_Lxra-37" vertex="1">
          <mxGeometry y="30" width="110" height="30" as="geometry" />
        </mxCell>
        <mxCell id="mR8fzBTnDBT8tPyH69nL-1" value="&lt;u&gt;도착목표시간&lt;/u&gt;" style="text;strokeColor=none;fillColor=none;align=left;verticalAlign=middle;spacingLeft=4;spacingRight=4;overflow=hidden;points=[[0,0.5],[1,0.5]];portConstraint=eastwest;rotatable=0;whiteSpace=wrap;html=1;" vertex="1" parent="nbzr0H1OdgaEcZh_Lxra-37">
          <mxGeometry y="60" width="110" height="30" as="geometry" />
        </mxCell>
        <mxCell id="nbzr0H1OdgaEcZh_Lxra-42" value="택배기사" style="swimlane;fontStyle=0;childLayout=stackLayout;horizontal=1;startSize=30;horizontalStack=0;resizeParent=1;resizeParentMax=0;resizeLast=0;collapsible=1;marginBottom=0;whiteSpace=wrap;html=1;" parent="1" vertex="1">
          <mxGeometry x="510" y="20" width="140" height="180" as="geometry" />
        </mxCell>
        <mxCell id="nbzr0H1OdgaEcZh_Lxra-43" value="택배기사이름" style="text;strokeColor=none;fillColor=none;align=left;verticalAlign=middle;spacingLeft=4;spacingRight=4;overflow=hidden;points=[[0,0.5],[1,0.5]];portConstraint=eastwest;rotatable=0;whiteSpace=wrap;html=1;" parent="nbzr0H1OdgaEcZh_Lxra-42" vertex="1">
          <mxGeometry y="30" width="140" height="30" as="geometry" />
        </mxCell>
        <mxCell id="nbzr0H1OdgaEcZh_Lxra-44" value="&lt;u&gt;차(비행기,선박) 번호&lt;/u&gt;" style="text;strokeColor=none;fillColor=none;align=left;verticalAlign=middle;spacingLeft=4;spacingRight=4;overflow=hidden;points=[[0,0.5],[1,0.5]];portConstraint=eastwest;rotatable=0;whiteSpace=wrap;html=1;" parent="nbzr0H1OdgaEcZh_Lxra-42" vertex="1">
          <mxGeometry y="60" width="140" height="30" as="geometry" />
        </mxCell>
        <mxCell id="nbzr0H1OdgaEcZh_Lxra-45" value="&lt;u&gt;핸드폰 번호&lt;/u&gt;" style="text;strokeColor=none;fillColor=none;align=left;verticalAlign=middle;spacingLeft=4;spacingRight=4;overflow=hidden;points=[[0,0.5],[1,0.5]];portConstraint=eastwest;rotatable=0;whiteSpace=wrap;html=1;" parent="nbzr0H1OdgaEcZh_Lxra-42" vertex="1">
          <mxGeometry y="90" width="140" height="30" as="geometry" />
        </mxCell>
        <mxCell id="nbzr0H1OdgaEcZh_Lxra-47" value="경력" style="text;strokeColor=none;fillColor=none;align=left;verticalAlign=middle;spacingLeft=4;spacingRight=4;overflow=hidden;points=[[0,0.5],[1,0.5]];portConstraint=eastwest;rotatable=0;whiteSpace=wrap;html=1;" parent="nbzr0H1OdgaEcZh_Lxra-42" vertex="1">
          <mxGeometry y="120" width="140" height="30" as="geometry" />
        </mxCell>
        <mxCell id="nbzr0H1OdgaEcZh_Lxra-55" value="주소" style="text;strokeColor=none;fillColor=none;align=left;verticalAlign=middle;spacingLeft=4;spacingRight=4;overflow=hidden;points=[[0,0.5],[1,0.5]];portConstraint=eastwest;rotatable=0;whiteSpace=wrap;html=1;" parent="nbzr0H1OdgaEcZh_Lxra-42" vertex="1">
          <mxGeometry y="150" width="140" height="30" as="geometry" />
        </mxCell>
        <mxCell id="nbzr0H1OdgaEcZh_Lxra-49" value="포장방법&lt;br&gt;포장가격&lt;br&gt;도착예정시간" style="rounded=0;whiteSpace=wrap;html=1;" parent="1" vertex="1">
          <mxGeometry x="350" y="560" width="120" height="60" as="geometry" />
        </mxCell>
        <mxCell id="mR8fzBTnDBT8tPyH69nL-2" style="edgeStyle=orthogonalEdgeStyle;rounded=0;orthogonalLoop=1;jettySize=auto;html=1;endArrow=none;endFill=0;dashed=1;" edge="1" parent="1" source="nbzr0H1OdgaEcZh_Lxra-51" target="mR8fzBTnDBT8tPyH69nL-3">
          <mxGeometry relative="1" as="geometry">
            <mxPoint x="460" y="280" as="targetPoint" />
          </mxGeometry>
        </mxCell>
        <mxCell id="mR8fzBTnDBT8tPyH69nL-17" style="edgeStyle=orthogonalEdgeStyle;rounded=0;orthogonalLoop=1;jettySize=auto;html=1;entryX=0.486;entryY=0.967;entryDx=0;entryDy=0;entryPerimeter=0;endArrow=classic;endFill=1;startArrow=none;startFill=0;" edge="1" parent="1" source="nbzr0H1OdgaEcZh_Lxra-51" target="nbzr0H1OdgaEcZh_Lxra-55">
          <mxGeometry relative="1" as="geometry" />
        </mxCell>
        <mxCell id="mR8fzBTnDBT8tPyH69nL-18" style="edgeStyle=orthogonalEdgeStyle;rounded=0;orthogonalLoop=1;jettySize=auto;html=1;endArrow=none;endFill=0;" edge="1" parent="1" source="nbzr0H1OdgaEcZh_Lxra-51" target="nbzr0H1OdgaEcZh_Lxra-37">
          <mxGeometry relative="1" as="geometry" />
        </mxCell>
        <mxCell id="mR8fzBTnDBT8tPyH69nL-19" style="edgeStyle=orthogonalEdgeStyle;rounded=0;orthogonalLoop=1;jettySize=auto;html=1;entryX=0;entryY=0.5;entryDx=0;entryDy=0;endArrow=none;endFill=0;" edge="1" parent="1" source="nbzr0H1OdgaEcZh_Lxra-51" target="mR8fzBTnDBT8tPyH69nL-9">
          <mxGeometry relative="1" as="geometry" />
        </mxCell>
        <mxCell id="nbzr0H1OdgaEcZh_Lxra-51" value="배정되다" style="rhombus;whiteSpace=wrap;html=1;dashed=1;" parent="1" vertex="1">
          <mxGeometry x="530" y="240" width="100" height="80" as="geometry" />
        </mxCell>
        <mxCell id="nbzr0H1OdgaEcZh_Lxra-67" value="(허브와같은) 보관지" style="swimlane;fontStyle=0;childLayout=stackLayout;horizontal=1;startSize=30;horizontalStack=0;resizeParent=1;resizeParentMax=0;resizeLast=0;collapsible=1;marginBottom=0;whiteSpace=wrap;html=1;dashed=1;" parent="1" vertex="1">
          <mxGeometry x="910" y="100" width="140" height="120" as="geometry" />
        </mxCell>
        <mxCell id="nbzr0H1OdgaEcZh_Lxra-68" value="&lt;u&gt;도착시간&lt;/u&gt;" style="text;strokeColor=none;fillColor=none;align=left;verticalAlign=middle;spacingLeft=4;spacingRight=4;overflow=hidden;points=[[0,0.5],[1,0.5]];portConstraint=eastwest;rotatable=0;whiteSpace=wrap;html=1;" parent="nbzr0H1OdgaEcZh_Lxra-67" vertex="1">
          <mxGeometry y="30" width="140" height="30" as="geometry" />
        </mxCell>
        <mxCell id="nbzr0H1OdgaEcZh_Lxra-70" value="(도착한)위치" style="text;strokeColor=none;fillColor=none;align=left;verticalAlign=middle;spacingLeft=4;spacingRight=4;overflow=hidden;points=[[0,0.5],[1,0.5]];portConstraint=eastwest;rotatable=0;whiteSpace=wrap;html=1;" parent="nbzr0H1OdgaEcZh_Lxra-67" vertex="1">
          <mxGeometry y="60" width="140" height="30" as="geometry" />
        </mxCell>
        <mxCell id="nbzr0H1OdgaEcZh_Lxra-72" value="다음 목적지" style="text;strokeColor=none;fillColor=none;align=left;verticalAlign=middle;spacingLeft=4;spacingRight=4;overflow=hidden;points=[[0,0.5],[1,0.5]];portConstraint=eastwest;rotatable=0;whiteSpace=wrap;html=1;" parent="nbzr0H1OdgaEcZh_Lxra-67" vertex="1">
          <mxGeometry y="90" width="140" height="30" as="geometry" />
        </mxCell>
        <mxCell id="nbzr0H1OdgaEcZh_Lxra-74" value="수신자" style="swimlane;fontStyle=0;childLayout=stackLayout;horizontal=1;startSize=30;horizontalStack=0;resizeParent=1;resizeParentMax=0;resizeLast=0;collapsible=1;marginBottom=0;whiteSpace=wrap;html=1;dashed=1;" parent="1" vertex="1">
          <mxGeometry x="705" y="600" width="140" height="150" as="geometry" />
        </mxCell>
        <mxCell id="nbzr0H1OdgaEcZh_Lxra-75" value="&lt;u&gt;주소(도착한위치)&lt;/u&gt;" style="text;strokeColor=none;fillColor=none;align=left;verticalAlign=middle;spacingLeft=4;spacingRight=4;overflow=hidden;points=[[0,0.5],[1,0.5]];portConstraint=eastwest;rotatable=0;whiteSpace=wrap;html=1;" parent="nbzr0H1OdgaEcZh_Lxra-74" vertex="1">
          <mxGeometry y="30" width="140" height="30" as="geometry" />
        </mxCell>
        <mxCell id="nbzr0H1OdgaEcZh_Lxra-76" value="이름" style="text;strokeColor=none;fillColor=none;align=left;verticalAlign=middle;spacingLeft=4;spacingRight=4;overflow=hidden;points=[[0,0.5],[1,0.5]];portConstraint=eastwest;rotatable=0;whiteSpace=wrap;html=1;" parent="nbzr0H1OdgaEcZh_Lxra-74" vertex="1">
          <mxGeometry y="60" width="140" height="30" as="geometry" />
        </mxCell>
        <mxCell id="nbzr0H1OdgaEcZh_Lxra-78" value="핸드폰번호" style="text;strokeColor=none;fillColor=none;align=left;verticalAlign=middle;spacingLeft=4;spacingRight=4;overflow=hidden;points=[[0,0.5],[1,0.5]];portConstraint=eastwest;rotatable=0;whiteSpace=wrap;html=1;" parent="nbzr0H1OdgaEcZh_Lxra-74" vertex="1">
          <mxGeometry y="90" width="140" height="30" as="geometry" />
        </mxCell>
        <mxCell id="nbzr0H1OdgaEcZh_Lxra-79" value="도착날짜" style="text;strokeColor=none;fillColor=none;align=left;verticalAlign=middle;spacingLeft=4;spacingRight=4;overflow=hidden;points=[[0,0.5],[1,0.5]];portConstraint=eastwest;rotatable=0;whiteSpace=wrap;html=1;" parent="nbzr0H1OdgaEcZh_Lxra-74" vertex="1">
          <mxGeometry y="120" width="140" height="30" as="geometry" />
        </mxCell>
        <mxCell id="mR8fzBTnDBT8tPyH69nL-38" style="edgeStyle=orthogonalEdgeStyle;rounded=0;orthogonalLoop=1;jettySize=auto;html=1;entryX=0;entryY=0.5;entryDx=0;entryDy=0;endArrow=none;endFill=0;dashed=1;" edge="1" parent="1" source="nbzr0H1OdgaEcZh_Lxra-89" target="nbzr0H1OdgaEcZh_Lxra-91">
          <mxGeometry relative="1" as="geometry" />
        </mxCell>
        <mxCell id="mR8fzBTnDBT8tPyH69nL-40" style="edgeStyle=orthogonalEdgeStyle;rounded=0;orthogonalLoop=1;jettySize=auto;html=1;entryX=0.878;entryY=0.967;entryDx=0;entryDy=0;entryPerimeter=0;" edge="1" parent="1" source="nbzr0H1OdgaEcZh_Lxra-89" target="mR8fzBTnDBT8tPyH69nL-10">
          <mxGeometry relative="1" as="geometry" />
        </mxCell>
        <mxCell id="nbzr0H1OdgaEcZh_Lxra-89" value="반품한다" style="rhombus;whiteSpace=wrap;html=1;dashed=1;" parent="1" vertex="1">
          <mxGeometry x="835" y="425" width="80" height="55" as="geometry" />
        </mxCell>
        <mxCell id="nbzr0H1OdgaEcZh_Lxra-90" value="반품이유" style="swimlane;fontStyle=0;childLayout=stackLayout;horizontal=1;startSize=30;horizontalStack=0;resizeParent=1;resizeParentMax=0;resizeLast=0;collapsible=1;marginBottom=0;whiteSpace=wrap;html=1;" parent="1" vertex="1">
          <mxGeometry x="950" y="395" width="70" height="120" as="geometry" />
        </mxCell>
        <mxCell id="nbzr0H1OdgaEcZh_Lxra-91" value="&lt;u&gt;반품방법&lt;/u&gt;" style="text;strokeColor=none;fillColor=none;align=left;verticalAlign=middle;spacingLeft=4;spacingRight=4;overflow=hidden;points=[[0,0.5],[1,0.5]];portConstraint=eastwest;rotatable=0;whiteSpace=wrap;html=1;" parent="nbzr0H1OdgaEcZh_Lxra-90" vertex="1">
          <mxGeometry y="30" width="70" height="30" as="geometry" />
        </mxCell>
        <mxCell id="nbzr0H1OdgaEcZh_Lxra-92" value="사유" style="text;strokeColor=none;fillColor=none;align=left;verticalAlign=middle;spacingLeft=4;spacingRight=4;overflow=hidden;points=[[0,0.5],[1,0.5]];portConstraint=eastwest;rotatable=0;whiteSpace=wrap;html=1;" parent="nbzr0H1OdgaEcZh_Lxra-90" vertex="1">
          <mxGeometry y="60" width="70" height="30" as="geometry" />
        </mxCell>
        <mxCell id="gkGhd8BcwIh4G741Xn8Y-1" value="누구에게 반품" style="text;strokeColor=none;fillColor=none;align=left;verticalAlign=middle;spacingLeft=4;spacingRight=4;overflow=hidden;points=[[0,0.5],[1,0.5]];portConstraint=eastwest;rotatable=0;whiteSpace=wrap;html=1;" parent="nbzr0H1OdgaEcZh_Lxra-90" vertex="1">
          <mxGeometry y="90" width="70" height="30" as="geometry" />
        </mxCell>
        <mxCell id="mR8fzBTnDBT8tPyH69nL-3" value="목적지" style="rounded=0;whiteSpace=wrap;html=1;" vertex="1" parent="1">
          <mxGeometry x="400" y="260" width="80" height="40" as="geometry" />
        </mxCell>
        <mxCell id="mR8fzBTnDBT8tPyH69nL-8" value="배송정보" style="swimlane;fontStyle=0;childLayout=stackLayout;horizontal=1;startSize=30;horizontalStack=0;resizeParent=1;resizeParentMax=0;resizeLast=0;collapsible=1;marginBottom=0;whiteSpace=wrap;html=1;dashed=1;" vertex="1" parent="1">
          <mxGeometry x="700" y="235" width="140" height="90" as="geometry" />
        </mxCell>
        <mxCell id="mR8fzBTnDBT8tPyH69nL-9" value="출발지" style="text;strokeColor=none;fillColor=none;align=left;verticalAlign=middle;spacingLeft=4;spacingRight=4;overflow=hidden;points=[[0,0.5],[1,0.5]];portConstraint=eastwest;rotatable=0;whiteSpace=wrap;html=1;" vertex="1" parent="mR8fzBTnDBT8tPyH69nL-8">
          <mxGeometry y="30" width="140" height="30" as="geometry" />
        </mxCell>
        <mxCell id="mR8fzBTnDBT8tPyH69nL-10" value="출발시간" style="text;strokeColor=none;fillColor=none;align=left;verticalAlign=middle;spacingLeft=4;spacingRight=4;overflow=hidden;points=[[0,0.5],[1,0.5]];portConstraint=eastwest;rotatable=0;whiteSpace=wrap;html=1;" vertex="1" parent="mR8fzBTnDBT8tPyH69nL-8">
          <mxGeometry y="60" width="140" height="30" as="geometry" />
        </mxCell>
        <mxCell id="mR8fzBTnDBT8tPyH69nL-22" style="edgeStyle=orthogonalEdgeStyle;rounded=0;orthogonalLoop=1;jettySize=auto;html=1;" edge="1" parent="1" source="mR8fzBTnDBT8tPyH69nL-20">
          <mxGeometry relative="1" as="geometry">
            <mxPoint x="980" y="260" as="targetPoint" />
          </mxGeometry>
        </mxCell>
        <mxCell id="mR8fzBTnDBT8tPyH69nL-20" value="분류하다" style="rhombus;whiteSpace=wrap;html=1;dashed=1;" vertex="1" parent="1">
          <mxGeometry x="940" y="240" width="80" height="80" as="geometry" />
        </mxCell>
        <mxCell id="mR8fzBTnDBT8tPyH69nL-21" style="edgeStyle=orthogonalEdgeStyle;rounded=0;orthogonalLoop=1;jettySize=auto;html=1;entryX=0;entryY=0.5;entryDx=0;entryDy=0;endArrow=none;endFill=0;" edge="1" parent="1" source="mR8fzBTnDBT8tPyH69nL-9" target="mR8fzBTnDBT8tPyH69nL-20">
          <mxGeometry relative="1" as="geometry" />
        </mxCell>
        <mxCell id="mR8fzBTnDBT8tPyH69nL-28" style="edgeStyle=orthogonalEdgeStyle;rounded=0;orthogonalLoop=1;jettySize=auto;html=1;entryX=0.7;entryY=0.125;entryDx=0;entryDy=0;entryPerimeter=0;endArrow=none;endFill=0;" edge="1" parent="1" source="nbzr0H1OdgaEcZh_Lxra-68" target="nbzr0H1OdgaEcZh_Lxra-51">
          <mxGeometry relative="1" as="geometry">
            <mxPoint x="630" y="250" as="targetPoint" />
            <Array as="points">
              <mxPoint x="700" y="145" />
              <mxPoint x="700" y="250" />
            </Array>
          </mxGeometry>
        </mxCell>
        <mxCell id="mR8fzBTnDBT8tPyH69nL-36" style="edgeStyle=orthogonalEdgeStyle;rounded=0;orthogonalLoop=1;jettySize=auto;html=1;entryX=0.457;entryY=0.967;entryDx=0;entryDy=0;entryPerimeter=0;endArrow=none;endFill=0;" edge="1" parent="1" source="mR8fzBTnDBT8tPyH69nL-34" target="mR8fzBTnDBT8tPyH69nL-10">
          <mxGeometry relative="1" as="geometry" />
        </mxCell>
        <mxCell id="mR8fzBTnDBT8tPyH69nL-37" style="edgeStyle=orthogonalEdgeStyle;rounded=0;orthogonalLoop=1;jettySize=auto;html=1;" edge="1" parent="1" source="mR8fzBTnDBT8tPyH69nL-34" target="nbzr0H1OdgaEcZh_Lxra-74">
          <mxGeometry relative="1" as="geometry" />
        </mxCell>
        <mxCell id="mR8fzBTnDBT8tPyH69nL-34" value="도착하다" style="rhombus;whiteSpace=wrap;html=1;dashed=1;" vertex="1" parent="1">
          <mxGeometry x="735" y="425" width="80" height="55" as="geometry" />
        </mxCell>
        <mxCell id="mR8fzBTnDBT8tPyH69nL-39" style="edgeStyle=orthogonalEdgeStyle;rounded=0;orthogonalLoop=1;jettySize=auto;html=1;entryX=0.5;entryY=1;entryDx=0;entryDy=0;endArrow=none;endFill=0;startArrow=classic;startFill=1;" edge="1" parent="1" source="nbzr0H1OdgaEcZh_Lxra-78" target="nbzr0H1OdgaEcZh_Lxra-89">
          <mxGeometry relative="1" as="geometry" />
        </mxCell>
      </root>
    </mxGraphModel>
  </diagram>
</mxfile>
